HIERARCHY
ROOT wineglass3
{
	OFFSET 0.000000 0.000000 0.000000
	CHANNELS 6 Xposition Yposition Zposition Yrotation Xrotation Zrotation
	End Site
	{
		OFFSET 0.000000 0.000000 0.000000
	}
}
MOTION
Frames: 87
Frame Time: 0.008333334
1.496981 3.789075 3.271373 69.426030 3.257705 -0.541962 
1.498100 3.789290 3.271431 69.489590 3.279433 -0.611023 
1.498528 3.789317 3.271877 69.486810 3.293987 -0.572083 
1.498551 3.789299 3.272345 69.480060 3.285375 -0.566071 
1.498442 3.789361 3.272561 69.452370 3.284571 -0.570068 
1.498526 3.789427 3.273228 69.423600 3.292202 -0.579712 
1.498226 3.789262 3.273408 69.429510 3.303832 -0.559113 
1.497543 3.789351 3.273831 69.387700 3.283371 -0.564362 
1.496858 3.789265 3.274029 69.380550 3.285521 -0.598633 
1.496169 3.789282 3.273982 69.417240 3.259667 -0.607208 
1.496287 3.789164 3.273954 69.404120 3.274299 -0.582581 
1.496270 3.789137 3.273639 69.414260 3.256037 -0.595520 
1.496480 3.789034 3.272941 69.410770 3.279692 -0.646149 
1.496333 3.789092 3.272310 69.403210 3.224605 -0.532044 
1.496270 3.789098 3.271654 69.451980 3.205549 -0.547852 
1.495583 3.789032 3.270642 69.449870 3.249491 -0.485992 
1.494526 3.788979 3.269678 69.474130 3.209176 -0.468567 
1.493663 3.788617 3.268903 69.430950 3.156871 -0.440155 
1.493572 3.788592 3.268833 69.431660 3.157378 -0.442566 
1.493481 3.788566 3.268764 69.432380 3.157885 -0.444946 
1.493389 3.788541 3.268695 69.433100 3.158393 -0.447327 
1.493298 3.788515 3.268625 69.433820 3.158900 -0.449707 
1.493206 3.788490 3.268556 69.434530 3.159406 -0.452118 
1.493115 3.788464 3.268487 69.435250 3.159914 -0.454498 
1.493024 3.788439 3.268418 69.435970 3.160421 -0.456879 
1.492932 3.788413 3.268348 69.436680 3.160928 -0.459259 
1.492841 3.788388 3.268279 69.437410 3.161436 -0.461670 
1.492750 3.788362 3.268210 69.438120 3.161943 -0.464050 
1.492658 3.788337 3.268140 69.438830 3.162450 -0.466431 
1.492567 3.788311 3.268071 69.439550 3.162957 -0.468842 
1.492476 3.788286 3.268002 69.440280 3.163465 -0.471222 
1.492384 3.788260 3.267932 69.440990 3.163972 -0.473602 
1.492293 3.788235 3.267863 69.441700 3.164480 -0.475983 
1.492201 3.788209 3.267794 69.442420 3.164987 -0.478394 
1.492110 3.788184 3.267725 69.443140 3.165495 -0.480774 
1.492019 3.788158 3.267655 69.443860 3.166003 -0.483154 
1.491927 3.788133 3.267586 69.444590 3.166511 -0.485535 
1.491836 3.788108 3.267517 69.445290 3.167018 -0.487946 
1.491745 3.788082 3.267447 69.446010 3.167526 -0.490326 
1.491653 3.788057 3.267378 69.446720 3.168033 -0.492706 
1.491356 3.788047 3.267425 69.479120 3.115082 -0.492554 
1.491164 3.788000 3.267486 69.474540 3.123853 -0.513123 
1.490972 3.787952 3.267546 69.469960 3.132621 -0.533661 
1.491245 3.788131 3.267868 69.455420 3.112379 -0.550934 
1.491270 3.788052 3.267998 69.441060 3.153055 -0.506775 
1.491986 3.788126 3.268394 69.436600 3.128340 -0.505432 
1.492099 3.788230 3.268653 69.414120 3.156460 -0.530029 
1.492408 3.788075 3.268808 69.410030 3.210566 -0.547669 
1.492356 3.788340 3.268858 69.429200 3.128703 -0.506928 
1.492076 3.788238 3.268939 69.431570 3.140222 -0.504242 
1.491798 3.788232 3.268982 69.454200 3.139260 -0.460785 
1.491479 3.788133 3.268817 69.446380 3.115976 -0.497711 
1.491380 3.788218 3.268669 69.468710 3.129203 -0.500855 
1.491417 3.788141 3.268297 69.446850 3.133171 -0.550232 
1.491502 3.788127 3.268113 69.423260 3.133269 -0.565613 
1.491757 3.788357 3.267854 69.463420 3.140463 -0.519562 
1.492281 3.788132 3.267725 69.472660 3.164445 -0.444489 
1.492135 3.788132 3.267674 69.453930 3.134260 -0.513580 
1.492002 3.788239 3.267681 69.476780 3.102559 -0.468323 
1.491947 3.788052 3.267719 69.484060 3.128378 -0.522492 
1.492146 3.788181 3.268001 69.464070 3.117240 -0.518677 
1.492346 3.788311 3.268284 69.444100 3.106104 -0.514862 
1.492464 3.788271 3.268275 69.462360 3.133176 -0.514252 
1.492433 3.788088 3.268660 69.412590 3.197447 -0.548309 
1.492385 3.788119 3.268586 69.445460 3.180870 -0.508789 
1.492510 3.787955 3.268706 69.498080 3.176595 -0.464600 
1.492074 3.787994 3.268156 69.472180 3.186818 -0.499390 
1.491989 3.788033 3.267928 69.448600 3.177049 -0.500153 
1.492157 3.787768 3.267873 69.467150 3.207108 -0.424439 
1.492119 3.787874 3.267583 69.434430 3.155077 -0.551727 
1.492036 3.787889 3.267250 69.440600 3.163977 -0.502014 
1.491953 3.787904 3.266917 69.446750 3.172871 -0.452271 
1.491780 3.787873 3.266782 69.437580 3.156358 -0.508331 
1.491633 3.787740 3.266921 69.458220 3.185905 -0.559357 
1.491376 3.787678 3.266961 69.462660 3.215044 -0.520416 
1.490910 3.787598 3.266927 69.513130 3.131068 -0.430878 
1.490876 3.787700 3.267103 69.514180 3.155890 -0.427185 
1.490845 3.787619 3.267281 69.495080 3.144927 -0.486755 
1.490720 3.787615 3.267377 69.480000 3.160971 -0.503296 
1.490577 3.787554 3.267895 69.475270 3.122904 -0.480896 
1.490443 3.787444 3.268014 69.453430 3.117533 -0.460938 
1.490316 3.787496 3.268144 69.470230 3.125875 -0.421722 
1.490381 3.787593 3.268180 69.450570 3.153681 -0.493347 
1.490567 3.787530 3.268154 69.497360 3.135020 -0.434967 
1.491090 3.787434 3.268212 69.482460 3.140066 -0.483246 
1.491993 3.787515 3.268366 69.497140 3.182511 -0.513550 
1.492382 3.787769 3.267829 69.461620 3.183036 -0.517639 
